<svg xmlns="http://www.w3.org/2000/svg" xmlns:xlink="http://www.w3.org/1999/xlink" version="1.1" x="0px" y="0px" viewBox="0 0 64 80" style="enable-background:new 0 0 64 64;" xml:space="preserve"><g><g><g><path d="M49.755,49.927H14.245c-2.068,0-3.75-1.683-3.75-3.75V22.567c0-2.067,1.682-3.75,3.75-3.75h35.511     c2.068,0,3.75,1.683,3.75,3.75v23.609C53.505,48.244,51.823,49.927,49.755,49.927z M14.245,20.317c-1.241,0-2.25,1.01-2.25,2.25     v23.609c0,1.24,1.009,2.25,2.25,2.25h35.511c1.241,0,2.25-1.01,2.25-2.25V22.567c0-1.24-1.009-2.25-2.25-2.25H14.245z"/><g><g><g><path d="M21.75,35.604c-2.791,0-5.062-2.372-5.062-5.287s2.271-5.286,5.062-5.286s5.062,2.371,5.062,5.286        S24.541,35.604,21.75,35.604z M21.75,26.53c-1.964,0-3.562,1.698-3.562,3.786s1.598,3.787,3.562,3.787        s3.562-1.699,3.562-3.787S23.714,26.53,21.75,26.53z"/><path d="M28.609,43.715H14.907c-0.414,0-0.75-0.336-0.75-0.75v-3.094c0-3.031,1.849-5.744,4.602-6.751        c0.256-0.095,0.542-0.042,0.748,0.137c1.285,1.108,3.21,1.107,4.492-0.003c0.206-0.179,0.492-0.231,0.748-0.139        c2.759,1.004,4.613,3.719,4.613,6.756v3.094C29.359,43.379,29.023,43.715,28.609,43.715z M15.657,42.215h12.202v-2.344        c0-2.267-1.29-4.302-3.249-5.192c-1.674,1.196-4.037,1.197-5.713,0.005c-1.954,0.892-3.24,2.926-3.24,5.188V42.215z"/></g></g><g><g><path d="M49.35,29.143H35.538c-0.414,0-0.75-0.336-0.75-0.75s0.336-0.75,0.75-0.75H49.35c0.414,0,0.75,0.336,0.75,0.75        S49.764,29.143,49.35,29.143z"/></g><g><path d="M49.35,35.122H35.538c-0.414,0-0.75-0.336-0.75-0.75s0.336-0.75,0.75-0.75H49.35c0.414,0,0.75,0.336,0.75,0.75        S49.764,35.122,49.35,35.122z"/></g><g><path d="M49.35,41.103H35.538c-0.414,0-0.75-0.336-0.75-0.75s0.336-0.75,0.75-0.75H49.35c0.414,0,0.75,0.336,0.75,0.75        S49.764,41.103,49.35,41.103z"/></g></g><path d="M36.51,20.317H27.49c-0.414,0-0.75-0.336-0.75-0.75v-0.234c0-2.9,2.36-5.26,5.26-5.26s5.26,2.359,5.26,5.26v0.234      C37.26,19.981,36.924,20.317,36.51,20.317z M28.275,18.817h7.45c-0.252-1.83-1.827-3.244-3.725-3.244      S28.527,16.987,28.275,18.817z"/></g></g><path d="M32,63C14.907,63,1,49.094,1,32S14.907,1,32,1s31,13.906,31,31S49.093,63,32,63z M32,3C16.009,3,3,16.01,3,32    s13.009,29,29,29s29-13.01,29-29S47.991,3,32,3z"/></g></g><text x="0" y="79" fill="#000000" font-size="5px" font-weight="bold" font-family="'Helvetica Neue', Helvetica, Arial-Unicode, Arial, Sans-serif">Created by SBTS</text><text x="0" y="84" fill="#000000" font-size="5px" font-weight="bold" font-family="'Helvetica Neue', Helvetica, Arial-Unicode, Arial, Sans-serif">from the Noun Project</text></svg>